<svg viewBox="0 0 135 49" fill="none" height="49" width="135" xmlns="http://www.w3.org/2000/svg">
  <g clip-path="url(#a)">
    <path d="m94.7 47.03 8.05-4.54 1.27-.6c1.62-.94 2.88-1.68 3.76-2.24.88-.56 1.61-1.13 2.17-1.73.56-.59.84-1.18.84-1.76 0-.35-.08-.66-.25-.92a1.72 1.72 0 0 0-.73-.62c-.32-.15-.7-.23-1.14-.23H97.94c-.41 0-.77.09-1.1.26-.32.17-.58.41-.76.72-.18.31-.28.66-.28 1.06v1.18h-1.17v-1.18a3.16 3.16 0 0 1 3.31-3.22h10.73c.66 0 1.24.13 1.74.39a2.75 2.75 0 0 1 1.55 2.57c0 .78-.27 1.5-.82 2.17A9.24 9.24 0 0 1 109 40.2a71.89 71.89 0 0 1-5.1 2.94l-7.36 4.16h15.42v1.18H94.7v-1.45ZM128.43 45h-13.9l13.74-11.62h1.33v10.44h3.58V45h-3.58v3.48h-1.17V45Zm-10.45-1.14c.13-.03.26-.04.38-.04h10.07v-8.49c0-.19.01-.37.03-.54l-.1-.04c-.05.1-.18.23-.39.38l-.19.14-9.55 8.27a1.3 1.3 0 0 1-.26.17l-.31.13.04.08.28-.07v.01Z" fill="#1D1D1B"/>
    <path d="M22.35 47.86a2.65 2.65 0 0 1-.73-1.39 9.82 9.82 0 0 1-.14-1.7V33.21h2.43v11.38c0 .35.01.61.04.8.03.18.09.31.18.39.09.08.23.12.43.12h11.69c.2 0 .34-.04.43-.12.09-.08.15-.21.18-.39.03-.18.04-.44.04-.8V33.21h2.43v11.56c0 .62-.05 1.19-.14 1.7-.09.51-.34.97-.73 1.39-.39.41-.99.62-1.8.62h-12.5c-.81 0-1.41-.21-1.8-.62h-.01Zm37.03.61h1.57v-8.71h-9.5v2.26h6.96v3.3c0 .21-.05.36-.14.46-.09.1-.29.15-.58.15H46.08c-.3 0-.48-.1-.57-.3a3.2 3.2 0 0 1-.12-1.06v-7.59c0-.33.01-.57.04-.73.03-.16.09-.28.19-.35.1-.07.25-.11.47-.11h13.04v-2.56H45.71c-.83 0-1.45.21-1.86.61-.41.4-.65.85-.75 1.35-.09.5-.14 1.07-.14 1.71v7.88c0 1.18.21 2.09.62 2.73.41.64 1 .97 1.76.97h12.44m6.8-15.27h16.77v2.6H66.94v3.84h14.41v2.38H66.94v3.84h14.41v2.6H64.58V33.2v.01Zm-46.87 2a2.73 2.73 0 0 0-.73-1.39c-.39-.42-.99-.62-1.8-.62H2.68c-.81 0-1.41.21-1.8.62-.39.41-.64.87-.73 1.39a9.82 9.82 0 0 0-.14 1.7v11.56h2.43v-6.45h12.99v6.45h2.43V36.91c0-.62-.05-1.19-.14-1.7h-.01ZM2.43 39.76v-2.67c0-.36.01-.63.04-.8.03-.17.09-.3.18-.39.09-.08.23-.12.43-.12h11.69c.2 0 .34.04.43.12.09.08.15.21.18.39.03.18.04.44.04.8v2.67H2.43Z" fill="#13A538"/>
    <path d="M.75 24.6c-.5-.56-.75-1.38-.75-2.48V17.1h2.54v5.09c0 .2.05.36.16.49.1.13.21.19.31.19h6.63a.5.5 0 0 0 .29-.07c.07-.05.11-.11.11-.19v-7.29c0-.16-.12-.3-.37-.43a6.1 6.1 0 0 0-1.45-.41c-.72-.14-1.79-.31-3.2-.51a78.6 78.6 0 0 0-2.14-.3c-.6-.11-1.11-.3-1.53-.56a2.65 2.65 0 0 1-.97-1.05 3.47 3.47 0 0 1-.34-1.62V3.2c0-.93.25-1.61.76-2.04A3.23 3.23 0 0 1 2.98.5h6.67c.85 0 1.56.23 2.15.67.58.45.88 1.24.88 2.36v5.24h-2.54v-5c0-.21-.03-.37-.1-.5-.06-.12-.18-.19-.34-.19H3.07c-.11 0-.2.03-.27.1-.07.06-.1.15-.1.27v7.02c0 .19.09.35.27.49.18.13.54.27 1.09.41.55.14 1.34.29 2.39.45.81.13 1.86.29 3.13.47l.64.16c.55.15 1.02.35 1.38.6.36.25.64.57.83.95.18.38.27.83.27 1.35v7.32c0 .9-.26 1.58-.79 2.06s-1.27.71-2.24.71H3c-1 0-1.75-.28-2.25-.84Zm16.05.21a2.57 2.57 0 0 1-.77-1.37 8.75 8.75 0 0 1-.15-1.68V4.15c0-.61.05-1.17.15-1.68.1-.5.36-.96.77-1.37.41-.4 1.05-.6 1.91-.6h6.76c.88 0 1.54.2 1.97.6.43.4.69.85.79 1.35.1.5.15 1.07.15 1.71v5.65h-2.5V4.22c0-.31-.01-.54-.04-.69a.6.6 0 0 0-.15-.32c-.07-.07-.2-.1-.37-.1h-6.41c-.15 0-.26.04-.33.11s-.11.19-.14.34c-.03.15-.03.38-.03.69v17.44c0 .31.01.54.03.69.02.15.07.26.14.33s.18.1.33.1h6.42c.16 0 .28-.03.36-.1a.6.6 0 0 0 .15-.32c.03-.15.04-.38.04-.69V16h2.5v5.75a8.8 8.8 0 0 1-.15 1.72c-.1.5-.36.94-.79 1.34-.43.4-1.09.6-1.97.6h-6.76c-.86 0-1.5-.2-1.91-.61v.01ZM31.62.5h2.65v11.23h7.42V.5h2.67v24.92h-2.67V14.19h-7.42v11.23h-2.65V.5Zm28.5 1.99c-.1-.51-.36-.97-.77-1.38C58.94.7 58.3.5 57.44.5h-6.86c-.86 0-1.5.2-1.91.61a2.6 2.6 0 0 0-.77 1.38c-.1.51-.15 1.07-.15 1.69v21.24h2.55V14.38h7.44v11.04h2.55V4.18c0-.62-.05-1.18-.15-1.69h-.02Zm-9.84 9.44v-7.5c0-.35.01-.61.04-.79.03-.18.08-.31.16-.39.08-.08.2-.12.36-.12h6.32c.16 0 .29.04.36.12.08.08.13.21.16.39.03.18.04.44.04.79v7.5h-7.44ZM63.63.5h2.7v22.28h8.65v2.64H63.63V.5Zm14.76 2.6h-4.84V.5h12.33v2.6h-4.84v22.34h-2.65V3.1Z" fill="#1D1D1B"/>
    <path d="M134.83 22.94c-.24-1.25-.43-2.56-.97-3.7a9.34 9.34 0 0 0-2.33-3.28 16.04 16.04 0 0 0-8.05-3.2 19.7 19.7 0 0 0-7.43.59c-2.18.53-5.45 1.31-7.6 1.95-1.31.39-3.21 1.12-4.68.67-.29-.11-.61-.17-.88-.32-2.2-1.23-2.95-3.61-1.77-5.84.63-1.2 1.52-2.14 2.99-2.43.91-.18 1.79-.58 2.64-.97.92-.42 1.26-1.4.7-2.21-.69-1-1.46-1.98-2.34-2.81-.56-.52-1.3-1.06-2.2-.84-1.01.25-2.06.45-2.68 1.44a27.67 27.67 0 0 1-5.93 6.75c-1.7 1.42-1.7 3.63-.33 5.21a14.88 14.88 0 0 1 2.35 3.27c.48 1.03.53 2.28.71 3.44a2.63 2.63 0 0 0 1.81 2.24 21.92 21.92 0 0 0 10.34 1.17c1.06-.12 3.89-.27 4.95-.39 3.13-.34 6.17.06 9.13 1.15.68.25 1.39.44 2.11.54 1.4.2 2.77-.04 4.07-.56a3.68 3.68 0 0 0 1.51-1.05c.5-.64 1.03-.51 1.6-.33.29.09.5.4.79.49.34.11.86.27 1.06.11.28-.22.52-.76.45-1.09h-.02ZM103.42 2.63a1.43 1.43 0 1 1 0 2.86 1.43 1.43 0 0 1 0-2.86Zm-6.44 10.24a1.4 1.4 0 1 1 0-2.82 1.4 1.4 0 0 1 0 2.82Zm30.4 10.02a3.25 3.25 0 1 1 0-6.5 3.25 3.25 0 0 1 0 6.5Z" fill="#13A538"/>
  </g>
  <defs>
    <clipPath id="a">
      <path d="M0 .5h134.84v47.97H0z" fill="#fff"/>
    </clipPath>
  </defs>
</svg>